<?xml version="1.0" standalone="no"?>
<!DOCTYPE svg PUBLIC "-//W3C//DTD SVG 20010904//EN"
 "http://www.w3.org/TR/2001/REC-SVG-20010904/DTD/svg10.dtd">
<svg version="1.0" xmlns="http://www.w3.org/2000/svg"
 width="700.000000pt" height="700.000000pt" viewBox="0 0 700.000000 700.000000"
 preserveAspectRatio="xMidYMid meet">
<metadata>
Created by potrace 1.11, written by Peter Selinger 2001-2013
</metadata>
<g transform="translate(0.000000,700.000000) scale(0.100000,-0.100000)"
fill="#000000" stroke="none">
<path d="M3278 6995 c-2 -1 -41 -5 -88 -9 -87 -7 -105 -9 -225 -27 -116 -18
-123 -19 -192 -35 -184 -42 -248 -59 -369 -99 -317 -106 -649 -271 -886 -440
-31 -22 -66 -47 -78 -55 -13 -8 -59 -44 -104 -79 -316 -250 -582 -546 -801
-891 -74 -117 -214 -380 -245 -460 -7 -19 -19 -48 -26 -65 -70 -158 -161 -460
-198 -660 -32 -165 -37 -202 -53 -375 -15 -163 -8 -592 12 -711 2 -13 6 -46 9
-74 9 -78 23 -156 51 -285 54 -251 162 -550 288 -800 61 -122 169 -312 187
-330 3 -3 31 -43 62 -90 170 -255 431 -534 708 -755 92 -74 370 -265 386 -265
4 0 15 -6 23 -14 29 -25 304 -161 431 -213 268 -110 577 -194 835 -228 22 -2
56 -7 75 -10 185 -26 693 -27 838 -1 19 4 89 14 142 21 19 3 46 7 60 10 14 3
41 8 60 11 72 12 339 85 450 122 202 68 492 201 632 289 21 12 40 23 42 23 11
0 269 179 356 247 151 118 329 285 445 417 33 38 68 78 78 88 83 88 286 384
379 553 51 93 148 290 148 300 0 2 11 28 24 57 57 127 151 421 182 573 17 81
54 301 59 350 4 33 9 71 11 85 9 47 11 525 4 605 -13 130 -21 202 -25 227 -3
13 -8 43 -11 68 -3 25 -9 61 -14 80 -5 19 -12 51 -15 70 -9 53 -62 261 -75
295 -7 17 -14 40 -16 52 -15 78 -146 391 -235 561 -205 391 -532 795 -849
1052 -30 25 -57 48 -60 51 -10 11 -167 127 -230 170 -154 104 -401 240 -550
304 -36 15 -83 35 -105 45 -116 51 -396 136 -563 171 -54 11 -106 22 -117 25
-11 2 -38 6 -60 9 -22 3 -51 7 -65 10 -13 2 -52 7 -86 11 -33 3 -74 8 -90 10
-32 5 -540 14 -546 9z"/>
</g>
</svg>
