<?xml version="1.0" encoding="utf-8"?>
<!-- Generator: Adobe Illustrator 16.0.3, SVG Export Plug-In . SVG Version: 6.00 Build 0)  -->
<!DOCTYPE svg PUBLIC "-//W3C//DTD SVG 1.1//EN" "http://www.w3.org/Graphics/SVG/1.1/DTD/svg11.dtd">
<svg version="1.1" id="Layer_1" xmlns="http://www.w3.org/2000/svg" xmlns:xlink="http://www.w3.org/1999/xlink" x="0px" y="0px"
	 width="450px" height="450px" viewBox="0 0 450 450" enable-background="new 0 0 450 450" xml:space="preserve">
<g>
	<defs>
		<rect id="SVGID_1_" width="450" height="450"/>
	</defs>
	<clipPath id="SVGID_2_">
		<use xlink:href="#SVGID_1_"  overflow="visible"/>
	</clipPath>
	<path clip-path="url(#SVGID_2_)" fill="#239A98" d="M225,450c124.3,0,225-100.7,225-225C450,100.7,349.3,0,225,0
		C100.7,0,0,100.7,0,225C0,349.3,100.7,450,225,450"/>
	<path clip-path="url(#SVGID_2_)" fill="#FFFFFF" d="M165,237.3c-4.2-21-1.1-50.2,12.7-55.3c-0.6-7.2-0.6-15.8-0.4-22.9
		c0.2-7.6,0.7-13.3-1.9-13c-3.1,0.4-13.2,20.9-15.3,47.1c-0.8,9.5-0.1,18.9,1.2,27.5C162.3,226.4,163.5,231.9,165,237.3"/>
	<path clip-path="url(#SVGID_2_)" fill="#FFFFFF" d="M285.1,237.3c1.5-5.4,2.7-10.9,3.6-16.5c1.3-8.6,2-18.1,1.3-27.5
		c-2.2-26.2-12.3-46.6-15.4-47.1c-2.5-0.4-2.1,5.3-1.9,13c0.2,7.1,0.2,15.7-0.4,22.9C286.2,187.1,289.4,216.3,285.1,237.3"/>
	<path clip-path="url(#SVGID_2_)" fill="#FFFFFF" d="M197.5,196.3c8,19.3,12.8,40.2,14.1,44.9c1.4-1.9,6.8-6.9,13.5-6.9
		c6.6,0,12,5,13.4,6.9c1.2-4.7,6.1-25.6,14.1-44.9c-0.4-3.6-2.3-14.3-3.1-18.2c-1.6-7.2-8.9-40.1-24.3-40.1
		c-15.4,0-22.8,32.8-24.4,40.1C199.8,182,197.9,192.7,197.5,196.3"/>
	<path clip-path="url(#SVGID_2_)" fill="#FFFFFF" d="M194,190.1c2.6-15.7,5.2-25.1,8.5-33.8c-6.2,1.1-13.2,15.5-15.4,26.5
		C190.5,185.1,193.8,189.8,194,190.1"/>
	<path clip-path="url(#SVGID_2_)" fill="#FFFFFF" d="M263,182.8c-2.2-11-9.3-25.4-15.4-26.5c3.3,8.7,5.9,18,8.5,33.8
		C256.3,189.8,259.5,185.1,263,182.8"/>
	<path clip-path="url(#SVGID_2_)" fill="#FFFFFF" d="M281.5,272.8c0,0-0.6,0.4-0.6,0.1c0-0.1,0.7-0.8,0.7-0.8
		c16.8-13.3,23.6-38.6,20.7-40.8c-1.6-0.5-4.3,5.6-8.3,13c-3,5.7-6,9.4-6,9.4s-0.3,0.4-0.4,0.3c-0.1,0,0.1-0.4,0.1-0.4
		c12.1-24.9,13.4-42.5,13.8-50.6c0.9-18.2-2.3-19.1-3.7-13.1c-1.5,6.9-3.3,15.7-4.7,24.4c-3.7,24-14,47.9-22.1,61
		c-1.2,1.9-2.2,1.8-2.5,1.4c-0.2-0.3-0.1-0.7,0.7-2.1c23.4-43.3,13.5-86.9-0.4-87.4c-13.3-0.5-26,51.9-27.5,57.7
		c9,15.3,11.1,36.6,10.5,41.9c-0.1,0.4-0.4,0.8-0.9,0.8c-0.5,0-0.9-0.4-1-0.9v0c0-9.8-7.4-47-24.9-47c-17.5,0-24.9,37.2-24.9,47v0
		c0,0.5-0.4,0.9-1,0.9c-0.5,0-0.8-0.4-0.9-0.8c-0.6-5.4,1.5-26.6,10.5-41.9c-1.5-5.7-14.2-58.2-27.5-57.7
		c-13.9,0.5-23.8,44.1-0.4,87.4c0.8,1.4,0.9,1.8,0.7,2.1c-0.3,0.4-1.3,0.5-2.5-1.4c-8.1-13-18.4-37-22.1-61
		c-1.3-8.7-3.1-17.5-4.7-24.4c-1.3-5.9-4.6-5-3.7,13.1c0.4,8.1,1.8,25.6,13.8,50.6c0,0,0.2,0.4,0.1,0.4c-0.2,0.1-0.4-0.3-0.4-0.3
		s-2.9-3.7-6-9.4c-4-7.4-6.7-13.6-8.3-13c-2.9,2.3,3.9,27.5,20.7,40.8c0,0,0.8,0.6,0.7,0.8c0,0.3-0.6-0.1-0.6-0.1
		c-6.5-4-15.3-13.1-16.8-9.8c-1,3.7,12.5,19.6,34.3,27.6c0,0,1.5,0.5,1.5,0.8c0,0.3-0.9,0-0.9,0c-3.1-1-13.3-4.9-15.9-4.5
		c-2.8,0.4-1.2,2.4,1.5,4.7c2.6,2.3,14.9,9.6,31.8,10.8c0.1,1.5,6,6.8,20.9,6.8c14.9,0,20.8-5.3,20.9-6.8
		c16.9-1.2,29.1-8.5,31.8-10.8c2.7-2.4,4.3-4.4,1.5-4.7c-2.6-0.4-12.8,3.5-15.9,4.5c0,0-0.9,0.3-0.9,0c0-0.3,1.5-0.8,1.5-0.8
		c21.8-8,35.3-23.8,34.3-27.6C296.8,259.8,288,268.8,281.5,272.8"/>
	<path clip-path="url(#SVGID_2_)" fill="#FFFFFF" d="M297.1,311.9c0,5.3,0,10.5,0,15.8c0,4.2-2.5,7.1-6.7,7.7
		c-3.8,0.6-6.5-1.2-7.1-4.7c-0.2-1-0.1-1.9-0.2-2.9c0-5.4,0-10.7,0-16.1c0-0.4,0-0.8-0.1-1.1h-6.3c-0.1,0.2-0.1,0.3-0.1,0.3
		c0,7.1-0.1,14.2,0.1,21.2c0.1,3,1.5,5.5,4,7.3c3.8,2.7,11.3,3.2,15.8-1.5c0.3-0.3,0.5-0.5,1-1v3.7h6v-30h-6.5V311.9z"/>
	<path clip-path="url(#SVGID_2_)" fill="#FFFFFF" d="M331.6,330.7c-1.2,3.2-3.6,4.9-7.1,5.1c-3.5,0.1-6.2-1.2-7.7-4.4
		c-1.6-3.2-1.7-6.6-0.4-10c1.4-3.6,4.9-5.7,8.8-5.3c3.7,0.4,6.5,3.1,7.2,6.9c0.2,0.9,0.2,1.8,0.3,2.7c0.1,0,0.1,0,0.2,0.1
		C332.4,327.4,332.2,329.1,331.6,330.7 M318.5,311.9c-0.9,0.5-1.7,1.2-2.7,1.9v-3.1h-6.5v45.7h6.5v-17.8c4.8,2.7,4.8,2.7,8.1,3
		c5.2,0.4,9.4-1.6,12.2-6c3.3-5.1,3.6-10.6,1.8-16.3C334.7,308.9,324.3,308.7,318.5,311.9"/>
	<path clip-path="url(#SVGID_2_)" fill="#FFFFFF" d="M368,330.9c-0.3,0.3-0.6,0.6-0.8,0.9c-2.2,2.3-5,3.7-8.2,3.9
		c-6.2,0.3-10.9-5-9.9-11.3c0.7-4.8,3.3-7.6,7.6-8.2c3.6-0.5,6.6,0.8,9.1,3.4c0.3,0.3,0.5,0.7,0.8,1c1.8-1.5,3.4-2.9,5-4.2
		c-1.5-2.2-3.4-3.7-5.6-4.7c-5.1-2.2-10.3-2-15.4,0.1c-3.3,1.4-5.7,3.9-6.8,7.3c-0.7,2-1.1,4.2-1.2,6.4c-0.3,6.8,3.1,12.3,9,14.7
		c4,1.6,8.1,1.8,12.3,0.7c3.3-0.9,5.8-3.1,8.2-5.5C370.6,333.8,369.3,332.4,368,330.9"/>
</g>
</svg>
